<svg width="700pt" height="700pt" version="1.1" viewBox="0 0 700 700" fill="#ffffff" stroke="#ffffff"  xmlns="http://www.w3.org/2000/svg"><path d="m338.45 240.62c3.1953 2.8047 7.3008 4.3516 11.551 4.3516s8.3555-1.5469 11.551-4.3516l78.75-70c3.7773-3.3164 5.9414-8.0977 5.9492-13.125v-105c0-4.6406-1.8438-9.0938-5.125-12.375s-7.7344-5.125-12.375-5.125h-157.5c-4.6406 0-9.0938 1.8438-12.375 5.125s-5.125 7.7344-5.125 12.375v105c0.007812 5.0273 2.1719 9.8086 5.9492 13.125zm-49.699-170.62h122.5v79.625l-61.25 54.426-61.25-54.426zm72.801 249.38c-3.1953-2.8047-7.3008-4.3516-11.551-4.3516s-8.3555 1.5469-11.551 4.3516l-78.75 70c-3.7773 3.3164-5.9414 8.0977-5.9492 13.125v105c0 4.6406 1.8438 9.0938 5.125 12.375s7.7344 5.125 12.375 5.125h157.5c4.6406 0 9.0938-1.8438 12.375-5.125s5.125-7.7344 5.125-12.375v-105c-0.007812-5.0273-2.1719-9.8086-5.9492-13.125zm49.699 170.62h-122.5v-79.625l61.25-54.426 61.25 54.426zm-100.62-221.55-70-78.75c-3.3164-3.7773-8.0977-5.9414-13.125-5.9492h-105c-4.6406 0-9.0938 1.8438-12.375 5.125s-5.125 7.7344-5.125 12.375v157.5c0 4.6406 1.8438 9.0938 5.125 12.375s7.7344 5.125 12.375 5.125h105c5.0273-0.007812 9.8086-2.1719 13.125-5.9492l70-78.75c2.8047-3.1953 4.3516-7.3008 4.3516-11.551s-1.5469-8.3555-4.3516-11.551zm-91 72.801h-79.625v-122.5h79.625l54.426 61.25zm357.88-157.5h-105c-5.0273 0.007812-9.8086 2.1719-13.125 5.9492l-70 78.75c-2.8047 3.1953-4.3516 7.3008-4.3516 11.551s1.5469 8.3555 4.3516 11.551l70 78.75c3.3164 3.7773 8.0977 5.9414 13.125 5.9492h105c4.6406 0 9.0938-1.8438 12.375-5.125s5.125-7.7344 5.125-12.375v-157.5c0-4.6406-1.8438-9.0938-5.125-12.375s-7.7344-5.125-12.375-5.125zm-17.5 157.5h-79.625l-54.426-61.25 54.426-61.25h79.625z"/></svg>
